<?xml version="1.0" standalone="no"?>
<!DOCTYPE svg PUBLIC "-//W3C//DTD SVG 20010904//EN"
 "http://www.w3.org/TR/2001/REC-SVG-20010904/DTD/svg10.dtd">
<svg version="1.0" xmlns="http://www.w3.org/2000/svg"
 width="512.000000pt" height="512.000000pt" viewBox="0 0 512.000000 512.000000"
 preserveAspectRatio="xMidYMid meet">

<g transform="translate(0.000000,512.000000) scale(0.100000,-0.100000)"
fill="#000000" stroke="none">
<path d="M2944 3827 c-21 -18 -27 -32 -27 -65 0 -47 11 -65 53 -82 39 -16 100
12 113 53 28 87 -69 154 -139 94z"/>
<path d="M3930 3272 c-36 -36 -39 -78 -10 -115 27 -34 52 -41 95 -27 41 13 55
35 55 83 0 40 -30 72 -77 82 -28 6 -37 2 -63 -23z"/>
<path d="M1995 3113 c-38 -9 -65 -44 -65 -84 0 -48 26 -78 72 -86 32 -5 41 -1
68 25 47 47 38 107 -20 137 -16 8 -30 14 -32 14 -2 -1 -12 -3 -23 -6z"/>
<path d="M3144 3020 c-30 -12 -54 -49 -54 -83 0 -40 49 -87 90 -87 42 0 90 47
90 89 0 59 -71 105 -126 81z"/>
<path d="M2514 2840 c-56 -23 -69 -90 -28 -139 37 -44 91 -44 129 1 22 26 26
39 21 67 -3 19 -13 43 -23 53 -22 21 -70 31 -99 18z"/>
<path d="M2154 2390 c-31 -12 -54 -49 -54 -86 0 -79 102 -115 154 -53 14 17
26 39 26 50 0 32 -26 74 -55 87 -30 14 -42 14 -71 2z"/>
<path d="M3771 2386 c-53 -30 -64 -89 -25 -135 26 -31 68 -41 109 -25 20 8 45
56 45 88 0 57 -79 101 -129 72z"/>
<path d="M4843 2198 c-27 -13 -47 -60 -38 -90 25 -82 136 -89 166 -10 29 75
-51 137 -128 100z"/>
<path d="M3234 2030 c-56 -23 -69 -90 -28 -139 52 -63 154 -26 154 55 0 62
-70 108 -126 84z"/>
<path d="M4219 2025 c-32 -17 -53 -65 -44 -97 22 -70 103 -93 150 -42 68 73
-20 187 -106 139z"/>
<path d="M2418 1664 c-56 -30 -64 -90 -19 -135 20 -20 39 -29 61 -29 37 0 90
47 90 79 0 37 -19 70 -49 86 -37 18 -48 18 -83 -1z"/>
<path d="M3864 1486 c-35 -16 -59 -64 -50 -101 22 -87 150 -87 172 0 18 73
-52 131 -122 101z"/>
<path d="M4569 1387 c-46 -35 -47 -101 -2 -137 38 -29 79 -26 115 10 26 27 30
36 25 68 -4 20 -16 45 -28 55 -24 20 -86 22 -110 4z"/>
<path d="M3032 970 c-47 -44 -39 -111 16 -143 39 -23 73 -17 108 18 32 32 31
75 -2 114 -32 38 -87 43 -122 11z"/>
</g>
</svg>
